<svg id="visual" viewBox="0 0 960 540" width="960" height="540" xmlns="http://www.w3.org/2000/svg" xmlns:xlink="http://www.w3.org/1999/xlink" version="1.1"><rect x="0" y="0" width="960" height="540" fill="#FFFFFF"></rect><defs><linearGradient id="grad1_0" x1="43.8%" y1="0%" x2="100%" y2="100%"><stop offset="14.444444444444446%" stop-color="#ffffff" stop-opacity="1"></stop><stop offset="85.55555555555554%" stop-color="#ffffff" stop-opacity="1"></stop></linearGradient></defs><defs><linearGradient id="grad2_0" x1="0%" y1="0%" x2="56.3%" y2="100%"><stop offset="14.444444444444446%" stop-color="#ffffff" stop-opacity="1"></stop><stop offset="85.55555555555554%" stop-color="#ffffff" stop-opacity="1"></stop></linearGradient></defs><g transform="translate(960, 0)"><path d="M0 486C-69 481.1 -138 476.2 -182.2 439.8C-226.3 403.3 -245.6 335.2 -292 292C-338.5 248.8 -412.1 230.5 -449 186C-485.9 141.5 -485.9 70.7 -486 0L0 0Z" fill="#9AD6D1"></path></g><g transform="translate(0, 540)"><path d="M0 -486C55.9 -461.5 111.8 -437.1 173 -417.6C234.1 -398.1 300.4 -383.6 343.7 -343.7C386.9 -303.7 407 -238.3 426.8 -176.8C446.7 -115.3 466.4 -57.6 486 0L0 0Z" fill="#9AD6D1"></path></g></svg>