<svg width="300" height="300" viewBox="0 0 300 300" fill="none" xmlns="http://www.w3.org/2000/svg">
<path fill-rule="evenodd" clip-rule="evenodd" d="M119.577 214.436L119.567 214.91L119.574 237.712C121.091 238.925 133.727 245.175 136.142 246.168L136.274 140.324L119.638 134.294L119.577 214.437V214.436Z" fill="#9AD6D1"/>
<path fill-rule="evenodd" clip-rule="evenodd" d="M147.889 143.607L147.792 248.323L164.466 242.541L164.524 139.754C161.373 140.263 150.126 142.372 147.889 143.608V143.607Z" fill="#9AD6D1"/>
<path fill-rule="evenodd" clip-rule="evenodd" d="M174.915 137.59L174.909 236.712L191.598 230.984L191.605 134.004L174.915 137.59Z" fill="#9AD6D1"/>
<path fill-rule="evenodd" clip-rule="evenodd" d="M106.889 214.181L106.997 131.367C105.323 131.081 105.488 131.361 104.474 130.277C101.396 130.3 93.9161 126.527 90.1254 125.701L90.1442 222.412C91.1349 223.884 104.584 230.495 106.801 231.256L106.833 223.348L106.888 214.18L106.889 214.181Z" fill="#9AD6D1"/>
<path fill-rule="evenodd" clip-rule="evenodd" d="M209.41 128.203L201.91 130.612L200.254 131.56L200.267 226.039L205.488 224.562L216.881 220.436L216.975 215.794L216.997 214.537L216.98 211.919L217 205.12L216.968 125.429L209.41 128.203Z" fill="#9AD6D1"/>
<path fill-rule="evenodd" clip-rule="evenodd" d="M115.282 114.411C120.588 115.075 136.404 118.037 140.72 117.054L137.612 116.375C132.936 116.309 125.102 113.964 120.925 112.566L118.437 111.588C87.8895 99.2198 96.1288 74.0998 116.086 75.1064C131.783 75.8989 142.001 84.5794 147.575 98.501C149.648 103.679 150.09 107.748 151.619 112.997C152.828 99.9024 145.689 80.2652 139.294 73.4678C129.438 62.9926 115.672 58.298 101.197 62.576C94.1966 64.6456 88.8542 68.7472 85.898 73.0961C77.1293 86.0039 84.2695 99.9834 96.2547 107.119C102.064 110.579 107.859 112.653 115.283 114.411H115.282ZM162.881 114.421L163.47 112.569C163.71 105.433 169.408 95.7068 173.201 91.9249C177.997 87.145 188.257 84.4376 196.55 88.4365C199.594 89.9045 202.251 93.0645 203.548 96.469C209.526 112.155 185.24 115.395 175.239 116.996C179.211 117.849 188.393 116.14 192.338 115.239C228.08 107.07 217.152 68.2772 183.615 73.3116C179.536 75.6343 175.893 75.6661 171.412 82.1627C167.6 87.6903 160.135 108.694 162.881 114.421V114.421Z" fill="#9AD6D1"/>
</svg>
